<?xml version="1.0" standalone="no"?>
<!DOCTYPE svg PUBLIC "-//W3C//DTD SVG 20010904//EN"
 "http://www.w3.org/TR/2001/REC-SVG-20010904/DTD/svg10.dtd">
<svg version="1.0" xmlns="http://www.w3.org/2000/svg"
 width="1024.000000pt" height="1024.000000pt" viewBox="0 0 1024.000000 1024.000000"
 preserveAspectRatio="xMidYMid meet">
<metadata>
Created by potrace 1.14, written by Peter Selinger 2001-2017
</metadata>
<g transform="translate(0.000000,1024.000000) scale(0.100000,-0.100000)"
fill="#000000" stroke="none">
<path d="M4858 10115 c-1 -1 -50 -6 -108 -9 -58 -4 -116 -8 -130 -10 -14 -3
-53 -7 -87 -10 -34 -3 -119 -15 -190 -26 -710 -114 -1360 -364 -1957 -754
-157 -102 -441 -315 -516 -386 -9 -8 -46 -41 -83 -74 -118 -102 -341 -329
-449 -456 -26 -30 -57 -66 -69 -80 -118 -137 -332 -441 -443 -630 -37 -63 -72
-122 -77 -130 -38 -58 -229 -465 -282 -600 -89 -225 -170 -484 -214 -680 -8
-36 -17 -74 -19 -85 -13 -54 -43 -219 -54 -290 -6 -44 -13 -91 -15 -105 -2
-14 -7 -52 -10 -85 -4 -33 -9 -73 -11 -90 -26 -198 -25 -838 1 -995 2 -14 6
-52 9 -85 4 -33 8 -71 10 -85 2 -14 8 -47 12 -75 4 -27 8 -57 10 -65 1 -8 6
-35 9 -60 4 -25 22 -115 41 -200 20 -85 37 -164 39 -174 27 -123 154 -505 217
-651 16 -38 37 -88 46 -110 83 -200 297 -587 450 -810 211 -309 489 -631 748
-865 117 -106 140 -126 219 -191 349 -287 757 -535 1180 -719 399 -174 906
-315 1310 -365 28 -3 64 -8 80 -10 157 -21 317 -29 590 -30 240 0 444 8 516
20 23 4 73 10 164 20 39 4 100 14 140 21 11 2 47 9 80 14 136 24 411 88 475
110 14 5 59 19 100 31 41 12 107 33 145 46 39 14 75 26 80 27 6 1 26 9 45 18
19 8 53 21 75 28 22 7 46 18 54 24 8 6 15 10 15 8 1 -4 45 12 112 43 30 14 57
25 59 25 19 0 374 187 520 273 53 31 363 237 382 253 11 11 31 26 43 34 28 19
117 88 150 116 188 161 254 220 356 321 104 103 226 234 294 313 12 14 31 36
43 50 105 121 282 369 429 600 53 84 148 255 148 267 0 6 3 13 8 15 12 5 118
228 188 395 104 250 236 667 268 848 3 17 10 53 16 80 30 144 49 265 66 415 3
30 7 66 10 80 25 160 25 840 0 1000 -3 14 -7 52 -10 85 -3 33 -8 69 -10 80 -2
11 -7 45 -11 75 -12 91 -62 347 -94 475 -33 135 -103 370 -131 440 -182 466
-285 679 -464 970 -106 170 -331 485 -398 556 -7 8 -52 59 -99 114 -189 219
-465 480 -686 648 -38 29 -70 55 -73 58 -3 3 -61 45 -129 92 -514 360 -1084
619 -1691 766 -69 17 -137 33 -152 36 -16 3 -40 7 -55 10 -16 3 -39 8 -53 10
-14 3 -50 9 -80 15 -76 13 -199 30 -345 46 -33 4 -76 8 -95 11 -44 5 -657 13
-662 8z"/>
</g>
</svg>
